<?xml version="1.0" encoding="utf-8" standalone="no"?>
<!DOCTYPE svg PUBLIC "-//W3C//DTD SVG 1.1//EN"
  "http://www.w3.org/Graphics/SVG/1.1/DTD/svg11.dtd">
<!-- Created with matplotlib (http://matplotlib.org/) -->
<svg height="345pt" version="1.1" viewBox="0 0 460 345" width="460pt" xmlns="http://www.w3.org/2000/svg" xmlns:xlink="http://www.w3.org/1999/xlink">
 <defs>
  <style type="text/css">
*{stroke-linecap:butt;stroke-linejoin:round;}
  </style>
 </defs>
 <g id="figure_1">
  <g id="patch_1">
   <path d="M 0 345.6 
L 460.8 345.6 
L 460.8 0 
L 0 0 
z
" style="fill:#ffffff;"/>
  </g>
  <g id="axes_1">
   <g id="patch_2">
    <path d="M 57.6 307.584 
L 414.72 307.584 
L 414.72 41.472 
L 57.6 41.472 
z
" style="fill:#ffffff;"/>
   </g>
   <g id="patch_3">
    <path clip-path="url(#p92676c9bc5)" d="M 222.500019 64.564364 
Q 249.278662 169.683868 275.505308 272.636509 
" style="fill:none;stroke:#808080;stroke-linecap:round;stroke-width:2;"/>
    <path clip-path="url(#p92676c9bc5)" d="M 276.455967 268.266584 
L 275.505308 272.636509 
L 272.579763 269.254026 
L 276.455967 268.266584 
z
" style="fill:#808080;stroke:#808080;stroke-linecap:round;stroke-width:2;"/>
   </g>
   <g id="patch_4">
    <path clip-path="url(#p92676c9bc5)" d="M 222.500019 64.564364 
Q 179.330601 153.847133 137.085875 241.217459 
" style="fill:none;stroke:#808080;stroke-linecap:round;stroke-width:1.9;"/>
    <path clip-path="url(#p92676c9bc5)" d="M 140.627646 238.486917 
L 137.085875 241.217459 
L 137.026504 236.745717 
L 140.627646 238.486917 
z
" style="fill:#808080;stroke:#808080;stroke-linecap:round;stroke-width:1.9;"/>
   </g>
   <g id="patch_5">
    <path clip-path="url(#p92676c9bc5)" d="M 222.500019 64.564364 
Q 166.241606 95.956077 111.447682 126.530618 
" style="fill:none;stroke:#808080;stroke-linecap:round;stroke-width:1.5;"/>
    <path clip-path="url(#p92676c9bc5)" d="M 115.915228 126.328054 
L 111.447682 126.530618 
L 113.966157 122.835043 
L 115.915228 126.328054 
z
" style="fill:#808080;stroke:#808080;stroke-linecap:round;stroke-width:1.5;"/>
   </g>
   <g id="patch_6">
    <path clip-path="url(#p92676c9bc5)" d="M 222.500019 64.564364 
Q 290.335739 82.717862 349.531222 98.559149 
" style="fill:none;stroke:#808080;stroke-linecap:round;stroke-width:8;"/>
    <path clip-path="url(#p92676c9bc5)" d="M 346.184217 95.593081 
L 349.531222 98.559149 
L 345.150165 99.457113 
L 346.184217 95.593081 
z
" style="fill:#808080;stroke:#808080;stroke-linecap:round;stroke-width:8;"/>
   </g>
   <g id="patch_7">
    <path clip-path="url(#p92676c9bc5)" d="M 380.048051 209.468594 
Q 333.306645 244.009461 288.543395 277.088514 
" style="fill:none;stroke:#808080;stroke-linecap:round;stroke-width:2.2;"/>
    <path clip-path="url(#p92676c9bc5)" d="M 292.948958 276.319737 
L 288.543395 277.088514 
L 290.571711 273.102798 
L 292.948958 276.319737 
z
" style="fill:#808080;stroke:#808080;stroke-linecap:round;stroke-width:2.2;"/>
   </g>
   <g id="patch_8">
    <path clip-path="url(#p92676c9bc5)" d="M 380.048051 209.468594 
Q 246.226549 177.244244 113.709404 145.333985 
" style="fill:none;stroke:#808080;stroke-linecap:round;stroke-width:1.2;"/>
    <path clip-path="url(#p92676c9bc5)" d="M 117.130027 148.214842 
L 113.709404 145.333985 
L 118.066464 144.326001 
L 117.130027 148.214842 
z
" style="fill:#808080;stroke:#808080;stroke-linecap:round;stroke-width:1.2;"/>
   </g>
   <g id="patch_9">
    <path clip-path="url(#p92676c9bc5)" d="M 380.048051 209.468594 
Q 381.410727 171.81107 382.425698 143.762349 
" style="fill:none;stroke:#808080;stroke-linecap:round;stroke-width:8.6;"/>
    <path clip-path="url(#p92676c9bc5)" d="M 380.282357 147.687408 
L 382.425698 143.762349 
L 384.279741 147.832057 
L 380.282357 147.687408 
z
" style="fill:#808080;stroke:#808080;stroke-linecap:round;stroke-width:8.6;"/>
   </g>
   <g id="patch_10">
    <path clip-path="url(#p92676c9bc5)" d="M 278.525339 284.491636 
Q 324.362259 207.469818 369.284347 131.985233 
" style="fill:none;stroke:#808080;stroke-linecap:round;stroke-width:1.6;"/>
    <path clip-path="url(#p92676c9bc5)" d="M 365.520043 134.399776 
L 369.284347 131.985233 
L 368.957399 136.445401 
L 365.520043 134.399776 
z
" style="fill:#808080;stroke:#808080;stroke-linecap:round;stroke-width:1.6;"/>
   </g>
   <g id="patch_11">
    <path clip-path="url(#p92676c9bc5)" d="M 278.525339 284.491636 
Q 254.215586 189.063751 230.954627 97.752907 
" style="fill:none;stroke:#808080;stroke-linecap:round;stroke-width:3.8;"/>
    <path clip-path="url(#p92676c9bc5)" d="M 230.003967 102.122832 
L 230.954627 97.752907 
L 233.880171 101.13539 
L 230.003967 102.122832 
z
" style="fill:#808080;stroke:#808080;stroke-linecap:round;stroke-width:3.8;"/>
   </g>
   <g id="patch_12">
    <path clip-path="url(#p92676c9bc5)" d="M 278.525339 284.491636 
Q 319.96258 253.87043 359.601498 224.578145 
" style="fill:none;stroke:#808080;stroke-linecap:round;stroke-width:2;"/>
    <path clip-path="url(#p92676c9bc5)" d="M 355.195935 225.346923 
L 359.601498 224.578145 
L 357.573182 228.563862 
L 355.195935 225.346923 
z
" style="fill:#808080;stroke:#808080;stroke-linecap:round;stroke-width:2;"/>
   </g>
   <g id="patch_13">
    <path clip-path="url(#p92676c9bc5)" d="M 128.466117 259.044798 
Q 244.718877 190.124205 359.144358 122.286917 
" style="fill:none;stroke:#808080;stroke-linecap:round;stroke-width:1.9;"/>
    <path clip-path="url(#p92676c9bc5)" d="M 354.683648 122.606397 
L 359.144358 122.286917 
L 356.723516 126.047173 
L 354.683648 122.606397 
z
" style="fill:#808080;stroke:#808080;stroke-linecap:round;stroke-width:1.9;"/>
   </g>
   <g id="patch_14">
    <path clip-path="url(#p92676c9bc5)" d="M 128.466117 259.044798 
Q 168.953813 175.308353 208.711488 93.081733 
" style="fill:none;stroke:#808080;stroke-linecap:round;stroke-width:1.5;"/>
    <path clip-path="url(#p92676c9bc5)" d="M 205.169717 95.812274 
L 208.711488 93.081733 
L 208.770858 97.553475 
L 205.169717 95.812274 
z
" style="fill:#808080;stroke:#808080;stroke-linecap:round;stroke-width:1.5;"/>
   </g>
   <g id="patch_15">
    <path clip-path="url(#p92676c9bc5)" d="M 88.589752 139.285148 
Q 142.445235 109.234249 188.490107 83.541604 
" style="fill:none;stroke:#808080;stroke-linecap:round;stroke-width:8;"/>
    <path clip-path="url(#p92676c9bc5)" d="M 184.022561 83.744168 
L 188.490107 83.541604 
L 185.971632 87.237179 
L 184.022561 83.744168 
z
" style="fill:#808080;stroke:#808080;stroke-linecap:round;stroke-width:8;"/>
   </g>
   <g id="patch_16">
    <path clip-path="url(#p92676c9bc5)" d="M 88.589752 139.285148 
Q 223.047218 171.662638 355.113363 203.464296 
" style="fill:none;stroke:#808080;stroke-linecap:round;stroke-width:2.2;"/>
    <path clip-path="url(#p92676c9bc5)" d="M 351.69274 200.583439 
L 355.113363 203.464296 
L 350.756303 204.47228 
L 351.69274 200.583439 
z
" style="fill:#808080;stroke:#808080;stroke-linecap:round;stroke-width:2.2;"/>
   </g>
   <g id="patch_17">
    <path clip-path="url(#p92676c9bc5)" d="M 383.730248 107.711141 
Q 317.604352 90.015208 252.774492 72.666107 
" style="fill:none;stroke:#808080;stroke-linecap:round;stroke-width:1.2;"/>
    <path clip-path="url(#p92676c9bc5)" d="M 256.121497 75.632175 
L 252.774492 72.666107 
L 257.155549 71.768144 
L 256.121497 75.632175 
z
" style="fill:#808080;stroke:#808080;stroke-linecap:round;stroke-width:1.2;"/>
   </g>
   <g id="patch_18">
    <path clip-path="url(#p92676c9bc5)" d="M 383.730248 107.711141 
Q 382.308352 147.005206 381.234161 176.690468 
" style="fill:none;stroke:#808080;stroke-linecap:round;stroke-width:8.6;"/>
    <path clip-path="url(#p92676c9bc5)" d="M 383.377502 172.765409 
L 381.234161 176.690468 
L 379.380119 172.62076 
L 383.377502 172.765409 
z
" style="fill:#808080;stroke:#808080;stroke-linecap:round;stroke-width:8.6;"/>
   </g>
   <g id="patch_19">
    <path clip-path="url(#p92676c9bc5)" d="M 383.730248 107.711141 
Q 333.684233 191.80569 284.55305 274.363006 
" style="fill:none;stroke:#808080;stroke-linecap:round;stroke-width:1.6;"/>
    <path clip-path="url(#p92676c9bc5)" d="M 288.317353 271.948463 
L 284.55305 274.363006 
L 284.879997 269.902837 
L 288.317353 271.948463 
z
" style="fill:#808080;stroke:#808080;stroke-linecap:round;stroke-width:1.6;"/>
   </g>
   <g id="patch_20">
    <path clip-path="url(#p92676c9bc5)" d="M 383.730248 107.711141 
Q 263.703212 178.869319 147.330735 247.860886 
" style="fill:none;stroke:#808080;stroke-linecap:round;stroke-width:3.8;"/>
    <path clip-path="url(#p92676c9bc5)" d="M 151.791445 247.541406 
L 147.330735 247.860886 
L 149.751576 244.10063 
L 151.791445 247.541406 
z
" style="fill:#808080;stroke:#808080;stroke-linecap:round;stroke-width:3.8;"/>
   </g>
   <g id="matplotlib.axis_1">
    <g id="xtick_1"/>
    <g id="xtick_2"/>
    <g id="xtick_3"/>
    <g id="xtick_4"/>
    <g id="xtick_5"/>
   </g>
   <g id="matplotlib.axis_2">
    <g id="ytick_1"/>
    <g id="ytick_2"/>
    <g id="ytick_3"/>
    <g id="ytick_4"/>
    <g id="ytick_5"/>
   </g>
   <g id="PathCollection_1">
    <path clip-path="url(#p92676c9bc5)" d="M 222.500019 94.564364 
C 230.456112 94.564364 238.087415 91.403374 243.713222 85.777567 
C 249.33903 80.15176 252.500019 72.520457 252.500019 64.564364 
C 252.500019 56.608271 249.33903 48.976968 243.713222 43.35116 
C 238.087415 37.725353 230.456112 34.564364 222.500019 34.564364 
C 214.543926 34.564364 206.912623 37.725353 201.286816 43.35116 
C 195.661008 48.976968 192.500019 56.608271 192.500019 64.564364 
C 192.500019 72.520457 195.661008 80.15176 201.286816 85.777567 
C 206.912623 91.403374 214.543926 94.564364 222.500019 94.564364 
z
" style="fill:#0000ff;stroke:#0000ff;"/>
    <path clip-path="url(#p92676c9bc5)" d="M 380.048051 232.652639 
C 386.196532 232.652639 392.094015 230.209822 396.441647 225.86219 
C 400.78928 221.514557 403.232097 215.617075 403.232097 209.468594 
C 403.232097 203.320113 400.78928 197.42263 396.441647 193.074998 
C 392.094015 188.727365 386.196532 186.284548 380.048051 186.284548 
C 373.89957 186.284548 368.002088 188.727365 363.654455 193.074998 
C 359.306823 197.42263 356.864005 203.320113 356.864005 209.468594 
C 356.864005 215.617075 359.306823 221.514557 363.654455 225.86219 
C 368.002088 230.209822 373.89957 232.652639 380.048051 232.652639 
z
" style="fill:#0000ff;stroke:#0000ff;"/>
    <path clip-path="url(#p92676c9bc5)" d="M 278.525339 294.491636 
C 281.17737 294.491636 283.721138 293.437973 285.596407 291.562704 
C 287.471676 289.687435 288.525339 287.143667 288.525339 284.491636 
C 288.525339 281.839605 287.471676 279.295838 285.596407 277.420569 
C 283.721138 275.545299 281.17737 274.491636 278.525339 274.491636 
C 275.873308 274.491636 273.329541 275.545299 271.454271 277.420569 
C 269.579002 279.295838 268.525339 281.839605 268.525339 284.491636 
C 268.525339 287.143667 269.579002 289.687435 271.454271 291.562704 
C 273.329541 293.437973 275.873308 294.491636 278.525339 294.491636 
z
" style="fill:#008000;stroke:#008000;"/>
    <path clip-path="url(#p92676c9bc5)" d="M 128.466117 276.722468 
C 133.154289 276.722468 137.651078 274.859837 140.966117 271.544798 
C 144.281155 268.22976 146.143786 263.732971 146.143786 259.044798 
C 146.143786 254.356626 144.281155 249.859837 140.966117 246.544798 
C 137.651078 243.22976 133.154289 241.367129 128.466117 241.367129 
C 123.777944 241.367129 119.281155 243.22976 115.966117 246.544798 
C 112.651078 249.859837 110.788447 254.356626 110.788447 259.044798 
C 110.788447 263.732971 112.651078 268.22976 115.966117 271.544798 
C 119.281155 274.859837 123.777944 276.722468 128.466117 276.722468 
z
" style="fill:#008000;stroke:#008000;"/>
    <path clip-path="url(#p92676c9bc5)" d="M 88.589752 163.780045 
C 95.085875 163.780045 101.316808 161.199109 105.91026 156.605656 
C 110.503713 152.012203 113.08465 145.78127 113.08465 139.285148 
C 113.08465 132.789025 110.503713 126.558092 105.91026 121.964639 
C 101.316808 117.371187 95.085875 114.79025 88.589752 114.79025 
C 82.093629 114.79025 75.862696 117.371187 71.269244 121.964639 
C 66.675791 126.558092 64.094854 132.789025 64.094854 139.285148 
C 64.094854 145.78127 66.675791 152.012203 71.269244 156.605656 
C 75.862696 161.199109 82.093629 163.780045 88.589752 163.780045 
z
" style="fill:#008000;stroke:#008000;"/>
    <path clip-path="url(#p92676c9bc5)" d="M 383.730248 134.168655 
C 390.746863 134.168655 397.47704 131.380925 402.438535 126.419429 
C 407.400031 121.457933 410.187762 114.727756 410.187762 107.711141 
C 410.187762 100.694527 407.400031 93.96435 402.438535 89.002854 
C 397.47704 84.041358 390.746863 81.253627 383.730248 81.253627 
C 376.713633 81.253627 369.983456 84.041358 365.021961 89.002854 
C 360.060465 93.96435 357.272734 100.694527 357.272734 107.711141 
C 357.272734 114.727756 360.060465 121.457933 365.021961 126.419429 
C 369.983456 131.380925 376.713633 134.168655 383.730248 134.168655 
z
" style="fill:#ff0000;stroke:#ff0000;"/>
   </g>
   <g id="patch_21">
    <path d="M 57.6 307.584 
L 57.6 41.472 
" style="fill:none;stroke:#000000;stroke-linecap:square;stroke-linejoin:miter;stroke-width:0.8;"/>
   </g>
   <g id="patch_22">
    <path d="M 414.72 307.584 
L 414.72 41.472 
" style="fill:none;stroke:#000000;stroke-linecap:square;stroke-linejoin:miter;stroke-width:0.8;"/>
   </g>
   <g id="patch_23">
    <path d="M 57.6 307.584 
L 414.72 307.584 
" style="fill:none;stroke:#000000;stroke-linecap:square;stroke-linejoin:miter;stroke-width:0.8;"/>
   </g>
   <g id="patch_24">
    <path d="M 57.6 41.472 
L 414.72 41.472 
" style="fill:none;stroke:#000000;stroke-linecap:square;stroke-linejoin:miter;stroke-width:0.8;"/>
   </g>
   <g id="text_1">
    <g clip-path="url(#p92676c9bc5)">
     <!-- ICL -->
     <defs>
      <path d="M 9.8125 72.90625 
L 19.671875 72.90625 
L 19.671875 0 
L 9.8125 0 
z
" id="DejaVuSans-49"/>
      <path d="M 64.40625 67.28125 
L 64.40625 56.890625 
Q 59.421875 61.53125 53.78125 63.8125 
Q 48.140625 66.109375 41.796875 66.109375 
Q 29.296875 66.109375 22.65625 58.46875 
Q 16.015625 50.828125 16.015625 36.375 
Q 16.015625 21.96875 22.65625 14.328125 
Q 29.296875 6.6875 41.796875 6.6875 
Q 48.140625 6.6875 53.78125 8.984375 
Q 59.421875 11.28125 64.40625 15.921875 
L 64.40625 5.609375 
Q 59.234375 2.09375 53.4375 0.328125 
Q 47.65625 -1.421875 41.21875 -1.421875 
Q 24.65625 -1.421875 15.125 8.703125 
Q 5.609375 18.84375 5.609375 36.375 
Q 5.609375 53.953125 15.125 64.078125 
Q 24.65625 74.21875 41.21875 74.21875 
Q 47.75 74.21875 53.53125 72.484375 
Q 59.328125 70.75 64.40625 67.28125 
z
" id="DejaVuSans-43"/>
      <path d="M 9.8125 72.90625 
L 19.671875 72.90625 
L 19.671875 8.296875 
L 55.171875 8.296875 
L 55.171875 0 
L 9.8125 0 
z
" id="DejaVuSans-4c"/>
     </defs>
     <g transform="translate(213.197206 67.875614)scale(0.12 -0.12)">
      <use xlink:href="#DejaVuSans-49"/>
      <use x="29.492188" xlink:href="#DejaVuSans-43"/>
      <use x="99.316406" xlink:href="#DejaVuSans-4c"/>
     </g>
    </g>
   </g>
   <g id="text_2">
    <g clip-path="url(#p92676c9bc5)">
     <!-- UoR -->
     <defs>
      <path d="M 8.6875 72.90625 
L 18.609375 72.90625 
L 18.609375 28.609375 
Q 18.609375 16.890625 22.84375 11.734375 
Q 27.09375 6.59375 36.625 6.59375 
Q 46.09375 6.59375 50.34375 11.734375 
Q 54.59375 16.890625 54.59375 28.609375 
L 54.59375 72.90625 
L 64.5 72.90625 
L 64.5 27.390625 
Q 64.5 13.140625 57.4375 5.859375 
Q 50.390625 -1.421875 36.625 -1.421875 
Q 22.796875 -1.421875 15.734375 5.859375 
Q 8.6875 13.140625 8.6875 27.390625 
z
" id="DejaVuSans-55"/>
      <path d="M 30.609375 48.390625 
Q 23.390625 48.390625 19.1875 42.75 
Q 14.984375 37.109375 14.984375 27.296875 
Q 14.984375 17.484375 19.15625 11.84375 
Q 23.34375 6.203125 30.609375 6.203125 
Q 37.796875 6.203125 41.984375 11.859375 
Q 46.1875 17.53125 46.1875 27.296875 
Q 46.1875 37.015625 41.984375 42.703125 
Q 37.796875 48.390625 30.609375 48.390625 
z
M 30.609375 56 
Q 42.328125 56 49.015625 48.375 
Q 55.71875 40.765625 55.71875 27.296875 
Q 55.71875 13.875 49.015625 6.21875 
Q 42.328125 -1.421875 30.609375 -1.421875 
Q 18.84375 -1.421875 12.171875 6.21875 
Q 5.515625 13.875 5.515625 27.296875 
Q 5.515625 40.765625 12.171875 48.375 
Q 18.84375 56 30.609375 56 
z
" id="DejaVuSans-6f"/>
      <path d="M 44.390625 34.1875 
Q 47.5625 33.109375 50.5625 29.59375 
Q 53.5625 26.078125 56.59375 19.921875 
L 66.609375 0 
L 56 0 
L 46.6875 18.703125 
Q 43.0625 26.03125 39.671875 28.421875 
Q 36.28125 30.8125 30.421875 30.8125 
L 19.671875 30.8125 
L 19.671875 0 
L 9.8125 0 
L 9.8125 72.90625 
L 32.078125 72.90625 
Q 44.578125 72.90625 50.734375 67.671875 
Q 56.890625 62.453125 56.890625 51.90625 
Q 56.890625 45.015625 53.6875 40.46875 
Q 50.484375 35.9375 44.390625 34.1875 
z
M 19.671875 64.796875 
L 19.671875 38.921875 
L 32.078125 38.921875 
Q 39.203125 38.921875 42.84375 42.21875 
Q 46.484375 45.515625 46.484375 51.90625 
Q 46.484375 58.296875 42.84375 61.546875 
Q 39.203125 64.796875 32.078125 64.796875 
z
" id="DejaVuSans-52"/>
     </defs>
     <g transform="translate(367.816489 212.779844)scale(0.12 -0.12)">
      <use xlink:href="#DejaVuSans-55"/>
      <use x="73.193359" xlink:href="#DejaVuSans-6f"/>
      <use x="134.375" xlink:href="#DejaVuSans-52"/>
     </g>
    </g>
   </g>
   <g id="text_3">
    <g clip-path="url(#p92676c9bc5)">
     <!-- CEH -->
     <defs>
      <path d="M 9.8125 72.90625 
L 55.90625 72.90625 
L 55.90625 64.59375 
L 19.671875 64.59375 
L 19.671875 43.015625 
L 54.390625 43.015625 
L 54.390625 34.71875 
L 19.671875 34.71875 
L 19.671875 8.296875 
L 56.78125 8.296875 
L 56.78125 0 
L 9.8125 0 
z
" id="DejaVuSans-45"/>
      <path d="M 9.8125 72.90625 
L 19.671875 72.90625 
L 19.671875 43.015625 
L 55.515625 43.015625 
L 55.515625 72.90625 
L 65.375 72.90625 
L 65.375 0 
L 55.515625 0 
L 55.515625 34.71875 
L 19.671875 34.71875 
L 19.671875 0 
L 9.8125 0 
z
" id="DejaVuSans-48"/>
     </defs>
     <g transform="translate(266.032214 287.802886)scale(0.12 -0.12)">
      <use xlink:href="#DejaVuSans-43"/>
      <use x="69.824219" xlink:href="#DejaVuSans-45"/>
      <use x="133.007812" xlink:href="#DejaVuSans-48"/>
     </g>
    </g>
   </g>
   <g id="text_4">
    <g clip-path="url(#p92676c9bc5)">
     <!-- ZSL -->
     <defs>
      <path d="M 5.609375 72.90625 
L 62.890625 72.90625 
L 62.890625 65.375 
L 16.796875 8.296875 
L 64.015625 8.296875 
L 64.015625 0 
L 4.5 0 
L 4.5 7.515625 
L 50.59375 64.59375 
L 5.609375 64.59375 
z
" id="DejaVuSans-5a"/>
      <path d="M 53.515625 70.515625 
L 53.515625 60.890625 
Q 47.90625 63.578125 42.921875 64.890625 
Q 37.9375 66.21875 33.296875 66.21875 
Q 25.25 66.21875 20.875 63.09375 
Q 16.5 59.96875 16.5 54.203125 
Q 16.5 49.359375 19.40625 46.890625 
Q 22.3125 44.4375 30.421875 42.921875 
L 36.375 41.703125 
Q 47.40625 39.59375 52.65625 34.296875 
Q 57.90625 29 57.90625 20.125 
Q 57.90625 9.515625 50.796875 4.046875 
Q 43.703125 -1.421875 29.984375 -1.421875 
Q 24.8125 -1.421875 18.96875 -0.25 
Q 13.140625 0.921875 6.890625 3.21875 
L 6.890625 13.375 
Q 12.890625 10.015625 18.65625 8.296875 
Q 24.421875 6.59375 29.984375 6.59375 
Q 38.421875 6.59375 43.015625 9.90625 
Q 47.609375 13.234375 47.609375 19.390625 
Q 47.609375 24.75 44.3125 27.78125 
Q 41.015625 30.8125 33.5 32.328125 
L 27.484375 33.5 
Q 16.453125 35.6875 11.515625 40.375 
Q 6.59375 45.0625 6.59375 53.421875 
Q 6.59375 63.09375 13.40625 68.65625 
Q 20.21875 74.21875 32.171875 74.21875 
Q 37.3125 74.21875 42.625 73.28125 
Q 47.953125 72.359375 53.515625 70.515625 
z
" id="DejaVuSans-53"/>
     </defs>
     <g transform="translate(117.203929 262.356048)scale(0.12 -0.12)">
      <use xlink:href="#DejaVuSans-5a"/>
      <use x="68.505859" xlink:href="#DejaVuSans-53"/>
      <use x="131.982422" xlink:href="#DejaVuSans-4c"/>
     </g>
    </g>
   </g>
   <g id="text_5">
    <g clip-path="url(#p92676c9bc5)">
     <!-- CEFAS -->
     <defs>
      <path d="M 9.8125 72.90625 
L 51.703125 72.90625 
L 51.703125 64.59375 
L 19.671875 64.59375 
L 19.671875 43.109375 
L 48.578125 43.109375 
L 48.578125 34.8125 
L 19.671875 34.8125 
L 19.671875 0 
L 9.8125 0 
z
" id="DejaVuSans-46"/>
      <path d="M 34.1875 63.1875 
L 20.796875 26.90625 
L 47.609375 26.90625 
z
M 28.609375 72.90625 
L 39.796875 72.90625 
L 67.578125 0 
L 57.328125 0 
L 50.6875 18.703125 
L 17.828125 18.703125 
L 11.1875 0 
L 0.78125 0 
z
" id="DejaVuSans-41"/>
     </defs>
     <g transform="translate(69.252877 142.596398)scale(0.12 -0.12)">
      <use xlink:href="#DejaVuSans-43"/>
      <use x="69.824219" xlink:href="#DejaVuSans-45"/>
      <use x="133.007812" xlink:href="#DejaVuSans-46"/>
      <use x="190.386719" xlink:href="#DejaVuSans-41"/>
      <use x="258.794922" xlink:href="#DejaVuSans-53"/>
     </g>
    </g>
   </g>
   <g id="text_6">
    <g clip-path="url(#p92676c9bc5)">
     <!-- NonAc -->
     <defs>
      <path d="M 9.8125 72.90625 
L 23.09375 72.90625 
L 55.421875 11.921875 
L 55.421875 72.90625 
L 64.984375 72.90625 
L 64.984375 0 
L 51.703125 0 
L 19.390625 60.984375 
L 19.390625 0 
L 9.8125 0 
z
" id="DejaVuSans-4e"/>
      <path d="M 54.890625 33.015625 
L 54.890625 0 
L 45.90625 0 
L 45.90625 32.71875 
Q 45.90625 40.484375 42.875 44.328125 
Q 39.84375 48.1875 33.796875 48.1875 
Q 26.515625 48.1875 22.3125 43.546875 
Q 18.109375 38.921875 18.109375 30.90625 
L 18.109375 0 
L 9.078125 0 
L 9.078125 54.6875 
L 18.109375 54.6875 
L 18.109375 46.1875 
Q 21.34375 51.125 25.703125 53.5625 
Q 30.078125 56 35.796875 56 
Q 45.21875 56 50.046875 50.171875 
Q 54.890625 44.34375 54.890625 33.015625 
z
" id="DejaVuSans-6e"/>
      <path d="M 48.78125 52.59375 
L 48.78125 44.1875 
Q 44.96875 46.296875 41.140625 47.34375 
Q 37.3125 48.390625 33.40625 48.390625 
Q 24.65625 48.390625 19.8125 42.84375 
Q 14.984375 37.3125 14.984375 27.296875 
Q 14.984375 17.28125 19.8125 11.734375 
Q 24.65625 6.203125 33.40625 6.203125 
Q 37.3125 6.203125 41.140625 7.25 
Q 44.96875 8.296875 48.78125 10.40625 
L 48.78125 2.09375 
Q 45.015625 0.34375 40.984375 -0.53125 
Q 36.96875 -1.421875 32.421875 -1.421875 
Q 20.0625 -1.421875 12.78125 6.34375 
Q 5.515625 14.109375 5.515625 27.296875 
Q 5.515625 40.671875 12.859375 48.328125 
Q 20.21875 56 33.015625 56 
Q 37.15625 56 41.109375 55.140625 
Q 45.0625 54.296875 48.78125 52.59375 
z
" id="DejaVuSans-63"/>
     </defs>
     <g transform="translate(364.365248 111.022391)scale(0.12 -0.12)">
      <use xlink:href="#DejaVuSans-4e"/>
      <use x="74.804688" xlink:href="#DejaVuSans-6f"/>
      <use x="135.986328" xlink:href="#DejaVuSans-6e"/>
      <use x="199.365234" xlink:href="#DejaVuSans-41"/>
      <use x="267.757812" xlink:href="#DejaVuSans-63"/>
     </g>
    </g>
   </g>
   <g id="legend_1">
    <g id="patch_25">
     <path d="M 132.314188 199.951175 
L 264.872 199.951175 
Q 266.872 199.951175 266.872 197.951175 
L 266.872 154.9168 
Q 266.872 152.9168 264.872 152.9168 
L 132.314188 152.9168 
Q 130.314188 152.9168 130.314188 154.9168 
L 130.314188 197.951175 
Q 130.314188 199.951175 132.314188 199.951175 
z
" style="fill:#ffffff;opacity:0.8;stroke:#cccccc;stroke-linejoin:miter;"/>
    </g>
    <g id="line2d_1"/>
    <g id="line2d_2">
     <defs>
      <path d="M 0 5 
C 1.326016 5 2.597899 4.473168 3.535534 3.535534 
C 4.473168 2.597899 5 1.326016 5 0 
C 5 -1.326016 4.473168 -2.597899 3.535534 -3.535534 
C 2.597899 -4.473168 1.326016 -5 0 -5 
C -1.326016 -5 -2.597899 -4.473168 -3.535534 -3.535534 
C -4.473168 -2.597899 -5 -1.326016 -5 0 
C -5 1.326016 -4.473168 2.597899 -3.535534 3.535534 
C -2.597899 4.473168 -1.326016 5 0 5 
z
" id="m83c943337f" style="stroke:#0000ff;"/>
     </defs>
     <g>
      <use style="fill:#0000ff;stroke:#0000ff;" x="144.314188" xlink:href="#m83c943337f" y="161.015238"/>
     </g>
    </g>
    <g id="text_7">
     <!-- University -->
     <defs>
      <path d="M 9.421875 54.6875 
L 18.40625 54.6875 
L 18.40625 0 
L 9.421875 0 
z
M 9.421875 75.984375 
L 18.40625 75.984375 
L 18.40625 64.59375 
L 9.421875 64.59375 
z
" id="DejaVuSans-69"/>
      <path d="M 2.984375 54.6875 
L 12.5 54.6875 
L 29.59375 8.796875 
L 46.6875 54.6875 
L 56.203125 54.6875 
L 35.6875 0 
L 23.484375 0 
z
" id="DejaVuSans-76"/>
      <path d="M 56.203125 29.59375 
L 56.203125 25.203125 
L 14.890625 25.203125 
Q 15.484375 15.921875 20.484375 11.0625 
Q 25.484375 6.203125 34.421875 6.203125 
Q 39.59375 6.203125 44.453125 7.46875 
Q 49.3125 8.734375 54.109375 11.28125 
L 54.109375 2.78125 
Q 49.265625 0.734375 44.1875 -0.34375 
Q 39.109375 -1.421875 33.890625 -1.421875 
Q 20.796875 -1.421875 13.15625 6.1875 
Q 5.515625 13.8125 5.515625 26.8125 
Q 5.515625 40.234375 12.765625 48.109375 
Q 20.015625 56 32.328125 56 
Q 43.359375 56 49.78125 48.890625 
Q 56.203125 41.796875 56.203125 29.59375 
z
M 47.21875 32.234375 
Q 47.125 39.59375 43.09375 43.984375 
Q 39.0625 48.390625 32.421875 48.390625 
Q 24.90625 48.390625 20.390625 44.140625 
Q 15.875 39.890625 15.1875 32.171875 
z
" id="DejaVuSans-65"/>
      <path d="M 41.109375 46.296875 
Q 39.59375 47.171875 37.8125 47.578125 
Q 36.03125 48 33.890625 48 
Q 26.265625 48 22.1875 43.046875 
Q 18.109375 38.09375 18.109375 28.8125 
L 18.109375 0 
L 9.078125 0 
L 9.078125 54.6875 
L 18.109375 54.6875 
L 18.109375 46.1875 
Q 20.953125 51.171875 25.484375 53.578125 
Q 30.03125 56 36.53125 56 
Q 37.453125 56 38.578125 55.875 
Q 39.703125 55.765625 41.0625 55.515625 
z
" id="DejaVuSans-72"/>
      <path d="M 44.28125 53.078125 
L 44.28125 44.578125 
Q 40.484375 46.53125 36.375 47.5 
Q 32.28125 48.484375 27.875 48.484375 
Q 21.1875 48.484375 17.84375 46.4375 
Q 14.5 44.390625 14.5 40.28125 
Q 14.5 37.15625 16.890625 35.375 
Q 19.28125 33.59375 26.515625 31.984375 
L 29.59375 31.296875 
Q 39.15625 29.25 43.1875 25.515625 
Q 47.21875 21.78125 47.21875 15.09375 
Q 47.21875 7.46875 41.1875 3.015625 
Q 35.15625 -1.421875 24.609375 -1.421875 
Q 20.21875 -1.421875 15.453125 -0.5625 
Q 10.6875 0.296875 5.421875 2 
L 5.421875 11.28125 
Q 10.40625 8.6875 15.234375 7.390625 
Q 20.0625 6.109375 24.8125 6.109375 
Q 31.15625 6.109375 34.5625 8.28125 
Q 37.984375 10.453125 37.984375 14.40625 
Q 37.984375 18.0625 35.515625 20.015625 
Q 33.0625 21.96875 24.703125 23.78125 
L 21.578125 24.515625 
Q 13.234375 26.265625 9.515625 29.90625 
Q 5.8125 33.546875 5.8125 39.890625 
Q 5.8125 47.609375 11.28125 51.796875 
Q 16.75 56 26.8125 56 
Q 31.78125 56 36.171875 55.265625 
Q 40.578125 54.546875 44.28125 53.078125 
z
" id="DejaVuSans-73"/>
      <path d="M 18.3125 70.21875 
L 18.3125 54.6875 
L 36.8125 54.6875 
L 36.8125 47.703125 
L 18.3125 47.703125 
L 18.3125 18.015625 
Q 18.3125 11.328125 20.140625 9.421875 
Q 21.96875 7.515625 27.59375 7.515625 
L 36.8125 7.515625 
L 36.8125 0 
L 27.59375 0 
Q 17.1875 0 13.234375 3.875 
Q 9.28125 7.765625 9.28125 18.015625 
L 9.28125 47.703125 
L 2.6875 47.703125 
L 2.6875 54.6875 
L 9.28125 54.6875 
L 9.28125 70.21875 
z
" id="DejaVuSans-74"/>
      <path d="M 32.171875 -5.078125 
Q 28.375 -14.84375 24.75 -17.8125 
Q 21.140625 -20.796875 15.09375 -20.796875 
L 7.90625 -20.796875 
L 7.90625 -13.28125 
L 13.1875 -13.28125 
Q 16.890625 -13.28125 18.9375 -11.515625 
Q 21 -9.765625 23.484375 -3.21875 
L 25.09375 0.875 
L 2.984375 54.6875 
L 12.5 54.6875 
L 29.59375 11.921875 
L 46.6875 54.6875 
L 56.203125 54.6875 
z
" id="DejaVuSans-79"/>
     </defs>
     <g transform="translate(162.314188 164.515238)scale(0.1 -0.1)">
      <use xlink:href="#DejaVuSans-55"/>
      <use x="73.193359" xlink:href="#DejaVuSans-6e"/>
      <use x="136.572266" xlink:href="#DejaVuSans-69"/>
      <use x="164.355469" xlink:href="#DejaVuSans-76"/>
      <use x="223.535156" xlink:href="#DejaVuSans-65"/>
      <use x="285.058594" xlink:href="#DejaVuSans-72"/>
      <use x="326.171875" xlink:href="#DejaVuSans-73"/>
      <use x="378.271484" xlink:href="#DejaVuSans-69"/>
      <use x="406.054688" xlink:href="#DejaVuSans-74"/>
      <use x="445.263672" xlink:href="#DejaVuSans-79"/>
     </g>
    </g>
    <g id="line2d_3"/>
    <g id="line2d_4">
     <defs>
      <path d="M 0 5 
C 1.326016 5 2.597899 4.473168 3.535534 3.535534 
C 4.473168 2.597899 5 1.326016 5 0 
C 5 -1.326016 4.473168 -2.597899 3.535534 -3.535534 
C 2.597899 -4.473168 1.326016 -5 0 -5 
C -1.326016 -5 -2.597899 -4.473168 -3.535534 -3.535534 
C -4.473168 -2.597899 -5 -1.326016 -5 0 
C -5 1.326016 -4.473168 2.597899 -3.535534 3.535534 
C -2.597899 4.473168 -1.326016 5 0 5 
z
" id="m3dc93ebc15" style="stroke:#008000;"/>
     </defs>
     <g>
      <use style="fill:#008000;stroke:#008000;" x="144.314188" xlink:href="#m3dc93ebc15" y="175.693363"/>
     </g>
    </g>
    <g id="text_8">
     <!-- Hosting Partner -->
     <defs>
      <path d="M 45.40625 27.984375 
Q 45.40625 37.75 41.375 43.109375 
Q 37.359375 48.484375 30.078125 48.484375 
Q 22.859375 48.484375 18.828125 43.109375 
Q 14.796875 37.75 14.796875 27.984375 
Q 14.796875 18.265625 18.828125 12.890625 
Q 22.859375 7.515625 30.078125 7.515625 
Q 37.359375 7.515625 41.375 12.890625 
Q 45.40625 18.265625 45.40625 27.984375 
z
M 54.390625 6.78125 
Q 54.390625 -7.171875 48.1875 -13.984375 
Q 42 -20.796875 29.203125 -20.796875 
Q 24.46875 -20.796875 20.265625 -20.09375 
Q 16.0625 -19.390625 12.109375 -17.921875 
L 12.109375 -9.1875 
Q 16.0625 -11.328125 19.921875 -12.34375 
Q 23.78125 -13.375 27.78125 -13.375 
Q 36.625 -13.375 41.015625 -8.765625 
Q 45.40625 -4.15625 45.40625 5.171875 
L 45.40625 9.625 
Q 42.625 4.78125 38.28125 2.390625 
Q 33.9375 0 27.875 0 
Q 17.828125 0 11.671875 7.65625 
Q 5.515625 15.328125 5.515625 27.984375 
Q 5.515625 40.671875 11.671875 48.328125 
Q 17.828125 56 27.875 56 
Q 33.9375 56 38.28125 53.609375 
Q 42.625 51.21875 45.40625 46.390625 
L 45.40625 54.6875 
L 54.390625 54.6875 
z
" id="DejaVuSans-67"/>
      <path id="DejaVuSans-20"/>
      <path d="M 19.671875 64.796875 
L 19.671875 37.40625 
L 32.078125 37.40625 
Q 38.96875 37.40625 42.71875 40.96875 
Q 46.484375 44.53125 46.484375 51.125 
Q 46.484375 57.671875 42.71875 61.234375 
Q 38.96875 64.796875 32.078125 64.796875 
z
M 9.8125 72.90625 
L 32.078125 72.90625 
Q 44.34375 72.90625 50.609375 67.359375 
Q 56.890625 61.8125 56.890625 51.125 
Q 56.890625 40.328125 50.609375 34.8125 
Q 44.34375 29.296875 32.078125 29.296875 
L 19.671875 29.296875 
L 19.671875 0 
L 9.8125 0 
z
" id="DejaVuSans-50"/>
      <path d="M 34.28125 27.484375 
Q 23.390625 27.484375 19.1875 25 
Q 14.984375 22.515625 14.984375 16.5 
Q 14.984375 11.71875 18.140625 8.90625 
Q 21.296875 6.109375 26.703125 6.109375 
Q 34.1875 6.109375 38.703125 11.40625 
Q 43.21875 16.703125 43.21875 25.484375 
L 43.21875 27.484375 
z
M 52.203125 31.203125 
L 52.203125 0 
L 43.21875 0 
L 43.21875 8.296875 
Q 40.140625 3.328125 35.546875 0.953125 
Q 30.953125 -1.421875 24.3125 -1.421875 
Q 15.921875 -1.421875 10.953125 3.296875 
Q 6 8.015625 6 15.921875 
Q 6 25.140625 12.171875 29.828125 
Q 18.359375 34.515625 30.609375 34.515625 
L 43.21875 34.515625 
L 43.21875 35.40625 
Q 43.21875 41.609375 39.140625 45 
Q 35.0625 48.390625 27.6875 48.390625 
Q 23 48.390625 18.546875 47.265625 
Q 14.109375 46.140625 10.015625 43.890625 
L 10.015625 52.203125 
Q 14.9375 54.109375 19.578125 55.046875 
Q 24.21875 56 28.609375 56 
Q 40.484375 56 46.34375 49.84375 
Q 52.203125 43.703125 52.203125 31.203125 
z
" id="DejaVuSans-61"/>
     </defs>
     <g transform="translate(162.314188 179.193363)scale(0.1 -0.1)">
      <use xlink:href="#DejaVuSans-48"/>
      <use x="75.195312" xlink:href="#DejaVuSans-6f"/>
      <use x="136.376953" xlink:href="#DejaVuSans-73"/>
      <use x="188.476562" xlink:href="#DejaVuSans-74"/>
      <use x="227.685547" xlink:href="#DejaVuSans-69"/>
      <use x="255.46875" xlink:href="#DejaVuSans-6e"/>
      <use x="318.847656" xlink:href="#DejaVuSans-67"/>
      <use x="382.324219" xlink:href="#DejaVuSans-20"/>
      <use x="414.111328" xlink:href="#DejaVuSans-50"/>
      <use x="474.351562" xlink:href="#DejaVuSans-61"/>
      <use x="535.630859" xlink:href="#DejaVuSans-72"/>
      <use x="576.744141" xlink:href="#DejaVuSans-74"/>
      <use x="615.953125" xlink:href="#DejaVuSans-6e"/>
      <use x="679.332031" xlink:href="#DejaVuSans-65"/>
      <use x="740.855469" xlink:href="#DejaVuSans-72"/>
     </g>
    </g>
    <g id="line2d_5"/>
    <g id="line2d_6">
     <defs>
      <path d="M 0 5 
C 1.326016 5 2.597899 4.473168 3.535534 3.535534 
C 4.473168 2.597899 5 1.326016 5 0 
C 5 -1.326016 4.473168 -2.597899 3.535534 -3.535534 
C 2.597899 -4.473168 1.326016 -5 0 -5 
C -1.326016 -5 -2.597899 -4.473168 -3.535534 -3.535534 
C -4.473168 -2.597899 -5 -1.326016 -5 0 
C -5 1.326016 -4.473168 2.597899 -3.535534 3.535534 
C -2.597899 4.473168 -1.326016 5 0 5 
z
" id="m4d7d7f16cf" style="stroke:#ff0000;"/>
     </defs>
     <g>
      <use style="fill:#ff0000;stroke:#ff0000;" x="144.314188" xlink:href="#m4d7d7f16cf" y="190.371488"/>
     </g>
    </g>
    <g id="text_9">
     <!-- Non-hosting Partner -->
     <defs>
      <path d="M 4.890625 31.390625 
L 31.203125 31.390625 
L 31.203125 23.390625 
L 4.890625 23.390625 
z
" id="DejaVuSans-2d"/>
      <path d="M 54.890625 33.015625 
L 54.890625 0 
L 45.90625 0 
L 45.90625 32.71875 
Q 45.90625 40.484375 42.875 44.328125 
Q 39.84375 48.1875 33.796875 48.1875 
Q 26.515625 48.1875 22.3125 43.546875 
Q 18.109375 38.921875 18.109375 30.90625 
L 18.109375 0 
L 9.078125 0 
L 9.078125 75.984375 
L 18.109375 75.984375 
L 18.109375 46.1875 
Q 21.34375 51.125 25.703125 53.5625 
Q 30.078125 56 35.796875 56 
Q 45.21875 56 50.046875 50.171875 
Q 54.890625 44.34375 54.890625 33.015625 
z
" id="DejaVuSans-68"/>
     </defs>
     <g transform="translate(162.314188 193.871488)scale(0.1 -0.1)">
      <use xlink:href="#DejaVuSans-4e"/>
      <use x="74.804688" xlink:href="#DejaVuSans-6f"/>
      <use x="135.986328" xlink:href="#DejaVuSans-6e"/>
      <use x="199.365234" xlink:href="#DejaVuSans-2d"/>
      <use x="235.449219" xlink:href="#DejaVuSans-68"/>
      <use x="298.828125" xlink:href="#DejaVuSans-6f"/>
      <use x="360.009766" xlink:href="#DejaVuSans-73"/>
      <use x="412.109375" xlink:href="#DejaVuSans-74"/>
      <use x="451.318359" xlink:href="#DejaVuSans-69"/>
      <use x="479.101562" xlink:href="#DejaVuSans-6e"/>
      <use x="542.480469" xlink:href="#DejaVuSans-67"/>
      <use x="605.957031" xlink:href="#DejaVuSans-20"/>
      <use x="637.744141" xlink:href="#DejaVuSans-50"/>
      <use x="697.984375" xlink:href="#DejaVuSans-61"/>
      <use x="759.263672" xlink:href="#DejaVuSans-72"/>
      <use x="800.376953" xlink:href="#DejaVuSans-74"/>
      <use x="839.585938" xlink:href="#DejaVuSans-6e"/>
      <use x="902.964844" xlink:href="#DejaVuSans-65"/>
      <use x="964.488281" xlink:href="#DejaVuSans-72"/>
     </g>
    </g>
   </g>
  </g>
 </g>
 <defs>
  <clipPath id="p92676c9bc5">
   <rect height="266.112" width="357.12" x="57.6" y="41.472"/>
  </clipPath>
 </defs>
</svg>
